<svg xmlns="http://www.w3.org/2000/svg" width="97" height="97" viewBox="0 0 97 97">
  <path id="iconmonstr-whatsapp-1" d="M.057,97,6.908,72.091A48.053,48.053,0,0,1,48.76,0a48.084,48.084,0,1,1-23.1,90.315L.057,97Zm26.79-15.387c6.806,4.021,13.3,6.43,21.9,6.434A39.966,39.966,0,1,0,8.618,48.063c0,8.993,2.644,15.726,7.09,22.771L11.651,85.578l15.2-3.965ZM73.089,59.53c-.3-.5-1.1-.8-2.315-1.4s-7.139-3.508-8.248-3.908-1.909-.6-2.717.6-3.119,3.908-3.821,4.709-1.409.9-2.615.3a32.97,32.97,0,0,1-9.706-5.961,36.18,36.18,0,0,1-6.713-8.322c-.7-1.2-.073-1.851.528-2.449.544-.538,1.206-1.4,1.811-2.106a7.871,7.871,0,0,0,1.218-2,2.2,2.2,0,0,0-.1-2.106c-.3-.6-2.717-6.511-3.72-8.916-.983-2.34-1.978-2.025-2.717-2.061l-2.315-.04a4.431,4.431,0,0,0-3.216,1.5A13.45,13.45,0,0,0,24.22,37.389c0,5.913,4.325,11.624,4.926,12.424s8.508,12.933,20.613,18.135a70.04,70.04,0,0,0,6.879,2.53,16.663,16.663,0,0,0,7.6.477c2.319-.344,7.139-2.906,8.146-5.711s1.007-5.214.7-5.715Z" transform="translate(-0.057)" fill="#fff"/>
</svg>
